# xmcd CD database file
#
# Track frame offsets:
#	150
#	149557
#	243008
#
# Disc length: 4204 seconds
#
# Revision: 0
# Processed by: cddbd v1.5.2PL0 Copyright (c) Steve Scherf et al.
# Submitted via: CDex 2.00
#
DISCID=22106a03
DTITLE=George Khan - Ah! CD1
DYEAR=1900
DGENRE=Jazz
TTITLE0=Battling the Sound
TTITLE1=At The Hornsea Sit-in 1
TTITLE2=At The Hornsea Sit-in 2
EXTD=
EXTT0=
EXTT1=
EXTT2=
PLAYORDER=
